<svg id="Capa_1" data-name="Capa 1" xmlns="http://www.w3.org/2000/svg" viewBox="0 0 91.851 75.363"><defs><style>.cls-1{fill:#e30613;}</style></defs><path class="cls-1" d="M58.83,69.327q0,14.933,6.929,22.713,6.409,7.188,17.637,7.188a23.8,23.8,0,0,0,9.114-1.982,25.747,25.747,0,0,0,8-5.058l2.815,3.483A27.208,27.208,0,0,1,83.4,103.859q-30.271,0-30.272-34.532H37.488l17.86-19.674L74.614,69.327Zm49.464-6.817q0-13.746-8.856-21.823-8.3-7.6-21.193-7.6A19.971,19.971,0,0,0,70.5,34.647l-1.778-3.816A23.62,23.62,0,0,1,79.1,28.5q14.634,0,24.38,8.633,10.6,9.413,10.6,25.381h15.265L111.48,83.147,93.288,62.51Z" transform="translate(-37.488 -28.496)"/></svg>