<svg id="Capa_1" data-name="Capa 1" xmlns="http://www.w3.org/2000/svg" viewBox="0 0 89.63 62.894"><defs><style>.cls-1{fill:#e30613;}</style></defs><path class="cls-1" d="M56.366,58.261H39.294v-3.75H56.366Zm0,9.3L42.007,81.918l-2.713-2.682,14.39-14.36Zm5.671-22.407-2.683,2.682L45,33.476l2.683-2.684ZM89.261,32.591V40.64q8.017,1.524,11.89,7.133,4.086,5.916,4.085,17.256,0,7.164,3.232,11.4,2.8,3.689,9.389,6.554v3.689H92.127a6.22,6.22,0,0,1-2.652,4.847,9.007,9.007,0,0,1-5.823,2.165,8.9,8.9,0,0,1-5.671-2.165q-2.775-2.225-2.774-4.847H49.476V82.985q7.439-3.567,9.817-6.707Q62.1,72.59,62.1,65.029q0-21.493,15.975-24.389V32.591Zm23.993,50.943a16.111,16.111,0,0,1-7.622-6.371,21.74,21.74,0,0,1-3.353-12.134q0-11.188-4.939-16.981Q92.554,42.5,83.682,42.5q-18.657,0-18.658,22.529,0,7.834-2.835,12.256-2.744,4.3-8.75,6.249h23.78a7.256,7.256,0,0,0,1.646,5.153,7.038,7.038,0,0,0,9.7-.031,7.419,7.419,0,0,0,1.524-5.122Zm9.969-50.058L108.864,47.834l-2.683-2.682,14.36-14.36Zm5.7,24.785H111.882v-3.75h17.042Zm0,20.975-2.683,2.682L111.882,67.559l2.683-2.683Z" transform="translate(-39.294 -30.792)"/></svg>