<svg id="Capa_1" data-name="Capa 1" xmlns="http://www.w3.org/2000/svg" viewBox="0 0 600.522 165.441"><defs><style>.cls-1{fill:none;stroke:#fff;stroke-miterlimit:10;stroke-width:20.083px;}.cls-2{fill:#e30613;}</style></defs><polygon class="cls-1" points="289.985 66.899 289.985 86.001 272.089 78.964 284.153 94.447 266.458 99.473 283.751 105.104 272.893 119.581 289.985 113.75 289.985 132.45 300.642 116.565 311.299 132.45 311.299 113.147 327.787 119.179 316.728 104.299 333.819 99.675 316.527 94.044 328.39 78.964 310.494 86.001 311.098 66.899 300.139 82.784 289.985 66.899"/><path class="cls-2" d="M805.776,581.88H581.566v26.781H567.222V475.684H805.776a29.547,29.547,0,0,1,13.643,3.232,35.7,35.7,0,0,1,11.071,8.866,42.973,42.973,0,0,1,7.483,13.113,46.828,46.828,0,0,1,2.73,16.16V540.51a47.061,47.061,0,0,1-2.73,16.069,42.693,42.693,0,0,1-7.483,13.205,35.61,35.61,0,0,1-11.071,8.864A29.5,29.5,0,0,1,805.776,581.88Zm20.582-46.726V522.6a44.614,44.614,0,0,0-1.4-11.174,26.359,26.359,0,0,0-4.6-9.6,22.947,22.947,0,0,0-8.341-6.649c-.044-.021-26.411-.313-61.293-.69-68.27-.738-169.155-1.8-169.155-1.8v72.213s101.489-.358,169.732-1.074c33.786-.354,59.423-.8,60.559-1.327a22.079,22.079,0,0,0,8.342-6.556,27.443,27.443,0,0,0,4.677-9.512A42.081,42.081,0,0,0,826.358,535.154Z" transform="translate(-240.181 -465.499)"/><path class="cls-2" d="M395.711,553.008a59.262,59.262,0,0,1-12.087,30.45,67.738,67.738,0,0,1-26.7,20.518q-16.491,7.308-37.664,7.308-23.611,0-41.412-9.182a68.161,68.161,0,0,1-27.734-25.578q-9.934-16.394-9.931-38.133t9.931-38.132a68.21,68.21,0,0,1,27.734-25.579q17.8-9.179,41.412-9.181,21.173,0,37.664,7.307a68.136,68.136,0,0,1,26.7,20.425,58.949,58.949,0,0,1,12.087,30.544H370.789a40.557,40.557,0,0,0-8.9-19.3,44.873,44.873,0,0,0-17.708-12.461q-10.871-4.4-25.11-4.4-16.491,0-28.576,6.184a44.174,44.174,0,0,0-18.645,17.614q-6.562,11.432-6.558,26.983t6.558,26.984a44.156,44.156,0,0,0,18.645,17.614q12.085,6.184,28.576,6.184,14.238,0,25.11-4.31A43.607,43.607,0,0,0,361.888,572.4a41.157,41.157,0,0,0,8.9-19.394Z" transform="translate(-240.181 -465.499)"/><path class="cls-2" d="M484.9,577.93c-5.059,20.05-3.934,30.168,1.687,31.667,13.116,3.561,18.925-36.35,9.181-37.288-3-.375-4.684,0-8.245,4.31l-.749-.749c8.432-11.992,24.921-24.547,32.229-20.237,17.614,10.493-8.432,56.776-34.478,56.776-10.493,0-23.234-8.245-28.294-17.8l27.358-77.386h-2.062c-19.487,59.024-40.473,97.436-55.089,97.436-21.923,0-31.479-16.3-31.479-30.543,0-44.033,95.75-81.7,96.5-109.241,0-3.372-1.313-4.31-3.561-4.31-14.427-.187-47.968,51.155-66.893,51.155-9.369,0-13.866-11.43-13.866-19.863,0-13.116,3.185-25.108,6.371-30.354l.375.561c-6.184,13.679,3.372,19.675,12.178,19.675,26.421,0,44.784-23.609,64.833-23.609,9.369,0,19.863,8.056,16.677,29.23C505.137,512.911,489.585,559.942,484.9,577.93Zm1.124-87.5c-31.1,32.416-61.272,46.094-62.771,80.2-.375,8.432,3.373,14.054,11.43,14.054,25.3,0,40.287-53.029,52.279-93.315Z" transform="translate(-240.181 -465.499)"/></svg>