<svg id="Capa_1" data-name="Capa 1" xmlns="http://www.w3.org/2000/svg" viewBox="0 0 53.365 36.126"><defs><style>.cls-1{fill:#e30613;}</style></defs><path class="cls-1" d="M30.81,15.913a26.426,26.426,0,0,1,6.472.685,12.51,12.51,0,0,1,4.355,1.938,7.39,7.39,0,0,1,2.455,3.04,10.042,10.042,0,0,1,.767,4,7.643,7.643,0,0,1-.352,2.316A6.617,6.617,0,0,1,43.4,29.974a8.583,8.583,0,0,1-1.939,1.778,12.323,12.323,0,0,1-2.845,1.4,10.243,10.243,0,0,1,5.364,2.771,7.086,7.086,0,0,1,1.736,4.952,9.97,9.97,0,0,1-.907,4.243,9.73,9.73,0,0,1-2.655,3.419,12.7,12.7,0,0,1-4.318,2.281,19.265,19.265,0,0,1-5.866.821H17.315V15.913Zm-4.985,6.2v8.826h4.432a15.06,15.06,0,0,0,2.542-.2,5.344,5.344,0,0,0,1.927-.687,3.176,3.176,0,0,0,1.208-1.348,4.959,4.959,0,0,0,.415-2.158,5.911,5.911,0,0,0-.328-2.121,3.037,3.037,0,0,0-1.006-1.36,4.259,4.259,0,0,0-1.724-.736,12.173,12.173,0,0,0-2.481-.22Zm5.992,23.267a7.716,7.716,0,0,0,2.757-.416,4.372,4.372,0,0,0,1.675-1.079,3.612,3.612,0,0,0,.831-1.5,6.415,6.415,0,0,0,.226-1.691,5.519,5.519,0,0,0-.264-1.765,2.926,2.926,0,0,0-.907-1.325,4.47,4.47,0,0,0-1.7-.833,10.164,10.164,0,0,0-2.668-.294H25.825v8.9Z" transform="translate(-17.315 -15.913)"/><path class="cls-1" d="M65,43.591c.065,1.379-1.64,2.943-4.865,2.943a5.38,5.38,0,0,1-5.191-5.86l15.563.041a18.006,18.006,0,0,0-.39-7,9.132,9.132,0,0,0-2.439-4.077,9.733,9.733,0,0,0-3.483-2.207,13.6,13.6,0,0,0-9.523.213,11.346,11.346,0,0,0-6.23,6.5,13,13,0,0,0-.842,4.673,15.452,15.452,0,0,0,.984,5.742,11.783,11.783,0,0,0,2.677,4.128,11.105,11.105,0,0,0,3.957,2.5,13.523,13.523,0,0,0,6.895.663,9.3,9.3,0,0,0,8-8.269Zm-8.4-10.64a4.39,4.39,0,0,1,3.269-1.2,4.591,4.591,0,0,1,2.014.4,3.746,3.746,0,0,1,1.337,1.056,4.147,4.147,0,0,1,.735,1.482A6.518,6.518,0,0,1,64.18,36.4H55.037A6.242,6.242,0,0,1,56.6,32.951Z" transform="translate(-17.315 -15.913)"/><rect class="cls-1" x="33.868" y="4.115" width="16.043" height="3.677"/></svg>