<svg id="Capa_1" data-name="Capa 1" xmlns="http://www.w3.org/2000/svg" viewBox="0 0 50.503 50.627"><defs><style>.cls-1,.cls-2{fill:#e30613;}.cls-2{fill-rule:evenodd;}</style></defs><path class="cls-1" d="M20.674,63,24.3,49.452a25.062,25.062,0,1,1,9.982,9.9Zm14.289-8.722.857.512a20.344,20.344,0,1,0-6.961-6.9l.526.863-2.026,7.561Z" transform="translate(-20.674 -12.368)"/><path class="cls-2" d="M55.474,40.592c-1.03-.616-2.369-1.3-3.581-.807-.93.38-1.524,1.837-2.127,2.58a.891.891,0,0,1-1.153.25,16.214,16.214,0,0,1-8.094-6.933.993.993,0,0,1,.125-1.356,5.468,5.468,0,0,0,1.47-2.387,5.217,5.217,0,0,0-.657-2.826c-.488-1.051-1.033-2.549-2.086-3.144a2.86,2.86,0,0,0-3.1.462,6.3,6.3,0,0,0-2.185,4.992,7.074,7.074,0,0,0,.2,1.584,13.1,13.1,0,0,0,1.52,3.5,27.472,27.472,0,0,0,1.586,2.413,24.49,24.49,0,0,0,6.882,6.389,20.762,20.762,0,0,0,4.291,2.041c1.681.556,3.18,1.134,5,.789a6.045,6.045,0,0,0,4.529-3.369,2.925,2.925,0,0,0,.21-1.72C58.035,41.869,56.432,41.165,55.474,40.592Z" transform="translate(-20.674 -12.368)"/></svg>