<svg id="Capa_1" data-name="Capa 1" xmlns="http://www.w3.org/2000/svg" viewBox="0 0 48.475 39.126"><defs><style>.cls-1{fill:#e30613;}</style></defs><path class="cls-1" d="M64.493,18.118H27.358a5.676,5.676,0,0,0-5.67,5.67V51.575a5.676,5.676,0,0,0,5.67,5.67H64.493a5.677,5.677,0,0,0,5.67-5.67V23.788A5.677,5.677,0,0,0,64.493,18.118Zm-3.77,5.54L45.95,34.255l-14.333-10.6Zm3.77,28.047H27.358a.13.13,0,0,1-.13-.13V27.3L45.9,41.108,64.623,27.679v23.9A.13.13,0,0,1,64.493,51.705Z" transform="translate(-21.688 -18.118)"/></svg>