<svg id="Capa_1" data-name="Capa 1" xmlns="http://www.w3.org/2000/svg" viewBox="0 0 43.126 43.126"><defs><style>.cls-1{fill:#e30613;}</style></defs><path class="cls-1" d="M53.36,23.819a2.528,2.528,0,1,0,2.528,2.528A2.528,2.528,0,0,0,53.36,23.819Z" transform="translate(-20.38 -16.118)"/><path class="cls-1" d="M42.12,27.061a10.621,10.621,0,1,0,10.62,10.62A10.632,10.632,0,0,0,42.12,27.061Zm0,17.424a6.8,6.8,0,1,1,6.8-6.8A6.811,6.811,0,0,1,42.12,44.485Z" transform="translate(-20.38 -16.118)"/><path class="cls-1" d="M50.551,59.245H33.333A12.968,12.968,0,0,1,20.38,46.291V29.072A12.968,12.968,0,0,1,33.333,16.118H50.551A12.969,12.969,0,0,1,63.506,29.072V46.291A12.969,12.969,0,0,1,50.551,59.245ZM33.333,20.176a8.9,8.9,0,0,0-8.9,8.9V46.291a8.9,8.9,0,0,0,8.9,8.9H50.551a8.906,8.906,0,0,0,8.9-8.9V29.072a8.906,8.906,0,0,0-8.9-8.9Z" transform="translate(-20.38 -16.118)"/></svg>