<svg id="Capa_1" data-name="Capa 1" xmlns="http://www.w3.org/2000/svg" viewBox="0 0 439.976 127.322"><defs><style>.cls-1{fill:#1d1d1b;}.cls-2{fill:#e30613;}</style></defs><path class="cls-1" d="M450.187,138.584H329.8v22.859H312.283V47.934h137.9a25.219,25.219,0,0,1,11.645,2.759,30.462,30.462,0,0,1,9.45,7.568,36.671,36.671,0,0,1,6.388,11.193A39.967,39.967,0,0,1,480,83.248V103.27a40.167,40.167,0,0,1-2.33,13.716,36.429,36.429,0,0,1-6.388,11.272,30.4,30.4,0,0,1-9.45,7.567A25.181,25.181,0,0,1,450.187,138.584ZM464.341,98.7V87.978a38.077,38.077,0,0,0-1.2-9.538,22.487,22.487,0,0,0-3.925-8.2,19.575,19.575,0,0,0-7.12-5.675c-.037-.018-22.545-.267-52.32-.59-58.275-.63-69.973-1.539-69.973-1.539V124.08s12.213-.3,70.465-.917c28.84-.3,50.724-.68,51.694-1.132a18.858,18.858,0,0,0,7.121-5.6,23.437,23.437,0,0,0,3.992-8.119A35.946,35.946,0,0,0,464.341,98.7Z" transform="translate(-40.024 -39.239)"/><path class="cls-1" d="M172.785,113.937a50.589,50.589,0,0,1-10.318,25.993,57.8,57.8,0,0,1-22.793,17.514q-14.076,6.239-32.15,6.238-20.154,0-35.35-7.837A58.2,58.2,0,0,1,48.5,134.011q-8.479-13.993-8.477-32.55T48.5,68.911A58.225,58.225,0,0,1,72.174,47.077q15.195-7.834,35.35-7.838,18.073,0,32.15,6.238a58.15,58.15,0,0,1,22.793,17.435,50.324,50.324,0,0,1,10.318,26.072H151.511a34.618,34.618,0,0,0-7.6-16.475A38.3,38.3,0,0,0,128.8,61.872a56.81,56.81,0,0,0-21.434-3.758q-14.078,0-24.393,5.278A37.71,37.71,0,0,0,67.056,78.428q-5.6,9.758-5.6,23.033t5.6,23.033A37.7,37.7,0,0,0,82.971,139.53q10.317,5.279,24.393,5.278a57.844,57.844,0,0,0,21.434-3.679,37.221,37.221,0,0,0,15.115-10.636,35.131,35.131,0,0,0,7.6-16.556Z" transform="translate(-40.024 -39.239)"/><path class="cls-1" d="M248.917,135.212c-4.318,17.114-3.359,25.751,1.44,27.031,11.2,3.039,16.155-31.029,7.837-31.83-2.559-.32-4,0-7.037,3.679l-.64-.639c7.2-10.237,21.273-20.954,27.511-17.275,15.035,8.957-7.2,48.465-29.43,48.465-8.957,0-19.834-7.038-24.152-15.2L247.8,83.389h-1.759c-16.635,50.384-34.549,83.173-47.024,83.173-18.715,0-26.872-13.916-26.872-26.072,0-37.587,81.733-69.736,82.372-93.249,0-2.878-1.119-3.679-3.039-3.679-12.315-.16-40.946,43.666-57.1,43.666-8,0-11.836-9.756-11.836-16.955,0-11.2,2.718-21.432,5.438-25.91l.32.479c-5.279,11.676,2.879,16.8,10.4,16.8,22.553,0,38.228-20.154,55.341-20.154,8,0,16.955,6.878,14.236,24.952C266.192,79.711,252.916,119.857,248.917,135.212Zm.96-74.695c-26.551,27.67-52.3,39.347-53.582,68.457-.32,7.2,2.879,12,9.757,12,21.592,0,34.388-45.265,44.625-79.654Z" transform="translate(-40.024 -39.239)"/><polygon class="cls-2" points="228.384 19.447 228.384 36.562 212.35 30.257 223.159 44.129 207.306 48.633 222.799 53.677 213.071 66.648 228.384 61.424 228.384 78.178 237.932 63.946 247.481 78.178 247.481 60.883 262.253 66.288 252.345 52.956 267.658 48.813 252.165 43.768 262.794 30.257 246.76 36.562 247.3 19.447 237.482 33.68 228.384 19.447"/></svg>