<svg id="Capa_1" data-name="Capa 1" xmlns="http://www.w3.org/2000/svg" viewBox="0 0 485.852 120.677"><defs><style>.cls-1{fill:#fff;}.cls-2{fill:#ea071d;}</style></defs><path class="cls-1" d="M488.08,182.572h-181.4v21.667H295.078V96.654h193a23.907,23.907,0,0,1,11.038,2.615,28.889,28.889,0,0,1,8.957,7.173,34.765,34.765,0,0,1,6.054,10.609,37.882,37.882,0,0,1,2.208,13.074V149.1a38.07,38.07,0,0,1-2.208,13,34.543,34.543,0,0,1-6.054,10.683,28.814,28.814,0,0,1-8.957,7.172A23.87,23.87,0,0,1,488.08,182.572Zm16.651-37.8V134.608a36.1,36.1,0,0,0-1.135-9.04,21.308,21.308,0,0,0-3.721-7.77,18.563,18.563,0,0,0-6.748-5.38c-.035-.017-21.368-.253-49.59-.558-55.233-.6-136.854-1.459-136.854-1.459v58.424s82.11-.289,137.321-.868c27.335-.287,48.077-.645,49-1.074a17.872,17.872,0,0,0,6.749-5.3,22.224,22.224,0,0,0,3.784-7.7A34.071,34.071,0,0,0,504.731,144.769Z" transform="translate(-30.485 -88.414)"/><path class="cls-1" d="M156.316,159.213a47.945,47.945,0,0,1-9.778,24.636,54.8,54.8,0,0,1-21.6,16.6q-13.343,5.913-30.473,5.913-19.1,0-33.5-7.429A55.15,55.15,0,0,1,38.52,178.239q-8.037-13.265-8.035-30.851t8.035-30.851a55.186,55.186,0,0,1,22.437-20.7q14.4-7.425,33.5-7.428,17.132,0,30.473,5.913a55.107,55.107,0,0,1,21.6,16.524,47.688,47.688,0,0,1,9.778,24.711H136.153a32.8,32.8,0,0,0-7.2-15.614,36.3,36.3,0,0,0-14.327-10.082A53.83,53.83,0,0,0,94.31,106.3q-13.343,0-23.12,5a35.747,35.747,0,0,0-15.084,14.251Q50.8,134.806,50.8,147.388t5.306,21.831A35.734,35.734,0,0,0,71.19,183.47q9.779,5,23.12,5a54.8,54.8,0,0,0,20.315-3.488A35.284,35.284,0,0,0,128.952,174.9a33.3,33.3,0,0,0,7.2-15.691Z" transform="translate(-30.485 -88.414)"/><path class="cls-1" d="M228.481,179.375C224.387,195.6,225.3,203.784,229.845,205c10.613,2.881,15.313-29.412,7.429-30.17-2.425-.3-3.79,0-6.67,3.486l-.607-.606c6.823-9.7,20.165-19.861,26.077-16.374,14.252,8.49-6.823,45.938-27.9,45.938-8.49,0-18.8-6.67-22.893-14.4l22.134-62.615h-1.667c-15.768,47.758-32.748,78.838-44.574,78.838-17.738,0-25.47-13.191-25.47-24.713,0-35.628,77.473-66.1,78.08-88.389,0-2.729-1.062-3.487-2.881-3.487-11.674-.152-38.813,41.39-54.125,41.39-7.581,0-11.22-9.248-11.22-16.071,0-10.613,2.578-20.316,5.155-24.561l.3.455c-5,11.067,2.73,15.919,9.855,15.919,21.377,0,36.235-19.1,52.458-19.1,7.58,0,16.07,6.519,13.493,23.651C244.855,126.766,232.271,164.82,228.481,179.375Zm.91-70.8c-25.168,26.229-49.577,37.3-50.79,64.89-.3,6.823,2.729,11.371,9.248,11.371,20.468,0,32.6-42.906,42.3-75.5Z" transform="translate(-30.485 -88.414)"/><polygon class="cls-2" points="219.632 17.073 219.632 36.799 201.152 29.532 213.611 45.52 195.338 50.711 213.195 56.525 201.983 71.475 219.632 65.454 219.632 84.764 230.637 68.361 241.642 84.764 241.642 64.831 258.669 71.06 247.249 55.694 264.898 50.919 247.041 45.105 259.292 29.532 240.812 36.799 241.435 17.073 230.118 33.477 219.632 17.073"/></svg>