<?xml version="1.0" standalone="no"?>
<!DOCTYPE svg PUBLIC "-//W3C//DTD SVG 20010904//EN"
 "http://www.w3.org/TR/2001/REC-SVG-20010904/DTD/svg10.dtd">
<svg version="1.0" xmlns="http://www.w3.org/2000/svg"
 width="1901.000000pt" height="867.000000pt" viewBox="0 0 1901.000000 867.000000"
 preserveAspectRatio="xMidYMid meet">

<g transform="translate(0.000000,867.000000) scale(0.100000,-0.100000)"
fill="#000000" stroke="none">
<path d="M0 4335 l0 -4335 9495 0 9495 0 0 4335 0 4335 -9495 0 -9495 0 0
-4335z m1127 4039 c-3 -3 -12 -4 -19 -1 -8 3 -5 6 6 6 11 1 17 -2 13 -5z m380
0 c-3 -3 -12 -4 -19 -1 -8 3 -5 6 6 6 11 1 17 -2 13 -5z m-650 -101 c-2 -21
-4 -6 -4 32 0 39 2 55 4 38 2 -18 2 -50 0 -70z m321 77 c12 -12 22 -26 22 -33
0 -6 -7 -2 -15 10 -9 13 -23 27 -33 32 -9 6 -12 11 -6 11 5 0 20 -9 32 -20z
m367 10 c3 -6 -1 -7 -9 -4 -18 7 -21 14 -7 14 6 0 13 -4 16 -10z m-265 -3 c0
-2 -12 -14 -27 -28 l-28 -24 24 28 c23 25 31 32 31 24z m301 -24 c13 -16 12
-17 -3 -4 -10 7 -18 15 -18 17 0 8 8 3 21 -13z m-926 -61 c-3 -3 -5 0 -5 7 0
7 -4 9 -10 6 -12 -7 -12 -3 -3 21 6 15 7 14 15 -6 5 -13 6 -25 3 -28z m552
-19 c-3 -10 -5 -2 -5 17 0 19 2 27 5 18 2 -10 2 -26 0 -35z m242 23 c-2 -2
-26 -6 -53 -9 -30 -3 -43 -1 -35 4 13 8 97 13 88 5z m158 -48 c-2 -13 -4 -5
-4 17 -1 22 1 32 4 23 2 -10 2 -28 0 -40z m-1100 20 c-3 -8 -6 -5 -6 6 -1 11
2 17 5 13 3 -3 4 -12 1 -19z m971 -3 c-3 -3 -9 2 -12 12 -6 14 -5 15 5 6 7 -7
10 -15 7 -18z m-403 5 c-3 -5 -27 -9 -53 -8 l-47 1 50 7 c28 4 51 8 53 8 2 1
0 -2 -3 -8z m272 -22 c-3 -8 -6 -5 -6 6 -1 11 2 17 5 13 3 -3 4 -12 1 -19z
m-730 -10 c-3 -8 -6 -5 -6 6 -1 11 2 17 5 13 3 -3 4 -12 1 -19z m60 -10 c-3
-8 -6 -5 -6 6 -1 11 2 17 5 13 3 -3 4 -12 1 -19z m180 -30 c-2 -13 -4 -5 -4
17 -1 22 1 32 4 23 2 -10 2 -28 0 -40z m329 23 c-17 -18 -16 -21 3 -60 12 -22
21 -44 21 -48 -1 -4 -12 13 -26 40 -24 46 -24 48 -7 71 10 13 20 22 22 20 2
-2 -4 -12 -13 -23z m285 6 c-10 -9 -11 -8 -5 6 3 10 9 15 12 12 3 -3 0 -11 -7
-18z m-38 -14 c-13 -2 -33 -2 -45 0 -13 2 -3 4 22 4 25 0 35 -2 23 -4z m-140
-78 c20 -9 25 -14 14 -15 -22 0 -87 61 -87 82 0 7 9 -2 20 -20 11 -18 35 -39
53 -47z m315 1 l-2 -51 -3 48 c-3 33 -8 47 -19 47 -8 0 -13 4 -9 10 3 5 12 7
20 3 11 -4 15 -19 13 -57z m-751 2 c-3 -7 -5 -2 -5 12 0 14 2 19 5 13 2 -7 2
-19 0 -25z m-150 2 c3 -11 2 -11 -4 -3 -5 6 -35 14 -68 16 l-60 4 64 -1 c48
-1 65 -5 68 -16z m367 -16 c3 -8 2 -12 -4 -9 -6 3 -10 10 -10 16 0 14 7 11 14
-7z m6661 -59 c2 -34 9 -61 17 -66 10 -7 9 -9 -3 -9 -22 0 -29 20 -29 87 0 72
10 63 15 -12z m1583 18 c25 2 27 -1 32 -45 3 -27 2 -48 -2 -48 -4 0 -8 18 -8
39 0 22 -5 43 -10 46 -19 12 -40 -16 -40 -53 0 -19 -3 -33 -6 -29 -3 3 -6 30
-6 59 1 69 4 90 9 56 3 -22 9 -26 31 -25z m1468 3 c28 7 43 -18 24 -40 -8 -11
-9 -21 0 -38 l11 -23 -20 23 c-10 12 -22 22 -25 22 -4 0 -11 -10 -16 -22 -6
-17 -8 -2 -8 52 1 41 3 63 5 47 4 -23 8 -26 29 -21z m528 29 c-16 -13 -17 -16
-4 -25 9 -6 10 -10 3 -10 -8 0 -13 -22 -15 -62 l-3 -63 -5 68 c-6 78 2 107 27
107 15 0 15 -2 -3 -15z m-9957 -1 c-3 -3 -12 -4 -19 -1 -8 3 -5 6 6 6 11 1 17
-2 13 -5z m6207 -3 c3 -4 -5 -6 -18 -4 -46 9 -75 -57 -40 -92 23 -23 48 -15
52 17 2 19 -2 28 -15 31 -12 3 -8 5 10 6 24 1 27 -2 27 -34 0 -29 -4 -36 -26
-41 -14 -4 -36 -2 -50 5 -19 9 -24 18 -24 50 0 23 7 46 16 55 17 17 59 22 68
7z m396 -1 c0 -5 -4 -10 -10 -10 -5 0 -10 5 -10 10 0 6 5 10 10 10 6 0 10 -4
10 -10z m1103 -32 c26 -72 30 -91 18 -84 -6 4 -11 14 -11 22 0 24 -57 18 -65
-7 -4 -11 -9 -18 -12 -15 -7 7 37 126 47 126 4 0 14 -19 23 -42z m347 38 c0
-3 -4 -8 -10 -11 -5 -3 -10 -1 -10 4 0 6 5 11 10 11 6 0 10 -2 10 -4z m1104
-42 l19 -47 24 47 c13 26 28 44 33 41 6 -4 10 -34 10 -67 0 -34 -3 -58 -7 -54
-4 4 -8 15 -8 24 -5 70 -5 70 -26 30 -11 -21 -22 -38 -24 -38 -2 0 -13 17 -24
38 l-20 37 -2 -30 c-1 -16 -1 -36 0 -42 1 -7 -3 -13 -9 -13 -5 0 -10 10 -10
23 0 36 12 97 19 97 3 0 15 -21 25 -46z m-2838 4 c4 -6 7 -26 8 -44 1 -28 -3
-33 -29 -38 -32 -7 -55 12 -55 45 0 37 58 66 76 37z m164 -3 c17 -20 -4 -45
-37 -45 -22 0 -24 -2 -13 -15 8 -10 21 -13 33 -9 13 4 17 2 13 -5 -9 -15 -39
-14 -54 1 -17 17 -15 54 4 72 19 20 38 20 54 1z m61 5 c11 7 19 7 19 1 0 -5
-5 -11 -12 -13 -6 -2 -17 -22 -24 -44 l-12 -39 0 55 c0 30 2 49 5 43 3 -9 10
-10 24 -3z m59 -41 c0 -27 -4 -48 -8 -45 -5 3 -8 18 -6 33 1 15 2 36 3 46 1 9
3 17 6 17 3 0 5 -23 5 -51z m107 -4 c1 -27 0 -45 -3 -38 -4 9 -10 10 -24 1
-25 -16 -50 5 -50 41 0 35 18 53 50 49 23 -3 25 -8 27 -53z m1080 46 c7 7 13
8 13 4 0 -4 -7 -13 -16 -19 -8 -6 -16 -26 -16 -44 -2 -53 -16 -36 -16 19 -1
38 2 49 10 41 8 -8 15 -9 25 -1z m73 -4 c-46 -23 -34 -85 14 -71 12 4 16 2 12
-5 -9 -15 -39 -14 -54 1 -7 7 -12 24 -12 38 0 31 17 50 45 50 18 0 17 -2 -5
-13z m177 -64 c-2 -16 -4 -3 -4 27 0 30 2 43 4 28 2 -16 2 -40 0 -55z m56 35
l14 -43 18 43 c10 24 19 41 21 39 6 -6 -29 -97 -37 -97 -3 0 -16 23 -27 50
-12 28 -17 50 -12 50 4 0 15 -19 23 -42z m146 28 c31 -37 -9 -103 -46 -80 -37
23 -24 94 17 94 10 0 23 -6 29 -14z m91 3 c0 -5 -4 -7 -10 -4 -5 3 -15 3 -21
-1 -7 -4 -1 -15 17 -29 18 -14 25 -27 21 -38 -7 -18 -42 -23 -51 -9 -3 5 4 8
16 8 31 -1 34 22 4 30 -25 6 -35 32 -19 47 10 11 43 8 43 -4z m1017 -44 c1
-27 0 -45 -3 -38 -4 9 -10 10 -24 1 -25 -16 -50 5 -50 41 0 35 18 53 50 49 23
-3 25 -8 27 -53z m150 -22 c-2 -16 -4 -3 -4 27 0 30 2 43 4 28 2 -16 2 -40 0
-55z m53 12 c-8 -40 -8 -40 -9 15 0 35 3 50 8 40 5 -8 5 -33 1 -55z m58 53 c7
-7 11 -30 10 -52 -1 -41 -1 -41 -5 -6 -6 43 -19 61 -40 53 -11 -4 -14 -2 -9 5
9 15 29 15 44 0z m120 -44 c2 -37 -2 -56 -13 -68 -19 -19 -51 -21 -61 -4 -5 8
-2 9 10 5 20 -8 56 8 56 24 0 6 -9 8 -20 4 -28 -9 -50 11 -50 44 0 35 18 53
50 49 23 -3 25 -8 28 -54z m148 48 c34 -23 15 -92 -26 -92 -36 0 -52 56 -24
84 17 17 33 20 50 8z m-10598 -92 c37 -33 70 -60 74 -60 5 0 8 27 8 60 l0 60
55 0 55 0 0 -145 0 -145 -56 0 c-54 0 -58 2 -122 60 -37 33 -70 60 -74 60 -5
0 -8 -27 -8 -60 l0 -60 -55 0 -55 0 0 145 0 145 56 0 c54 0 58 -2 122 -60z
m553 -85 l46 -145 -58 0 c-49 0 -59 3 -64 20 -5 15 -16 20 -43 21 -20 0 -48 2
-60 3 -17 2 -26 -4 -33 -21 -7 -20 -15 -23 -64 -23 -30 0 -55 4 -55 9 0 10 80
262 87 274 2 4 48 7 101 7 l97 0 46 -145z m386 119 c42 -32 52 -87 24 -140
l-23 -42 21 -41 21 -41 -65 0 c-65 0 -65 0 -82 35 -14 30 -22 35 -50 35 -31 0
-33 -2 -33 -35 l0 -35 -65 0 -65 0 0 146 0 145 144 -3 c128 -3 148 -5 173 -24z
m7598 -1244 c120 -12 206 -54 252 -123 41 -62 51 -97 65 -235 21 -217 -15
-414 -90 -485 -66 -63 -204 -97 -397 -97 -307 0 -428 66 -470 256 -25 110 -17
417 12 490 59 150 167 200 438 203 55 0 140 -4 190 -9z m1085 -15 c118 -35
201 -133 204 -239 l1 -51 -134 -3 c-123 -2 -135 -1 -153 18 -27 28 -46 31
-208 28 -144 -3 -145 -3 -148 -27 -2 -13 1 -28 8 -35 7 -7 86 -13 228 -16
l217 -5 67 -32 c110 -52 157 -145 145 -288 -12 -153 -102 -240 -272 -265 -91
-13 -312 -13 -395 0 -84 14 -181 61 -220 108 -34 41 -63 126 -58 169 l3 28
134 0 c119 1 136 -1 152 -18 26 -28 63 -33 220 -27 120 4 144 8 153 22 8 14 7
22 -7 35 -15 16 -45 19 -225 24 -221 6 -259 13 -333 65 -20 14 -49 48 -65 77
-27 48 -29 60 -29 157 0 79 4 112 17 136 42 76 133 134 238 153 86 15 394 6
460 -14z m-5008 -7 c33 -12 68 -80 68 -131 0 -93 -55 -147 -150 -147 -64 0
-119 24 -137 60 -7 14 -13 55 -13 92 0 57 4 71 25 97 40 47 128 59 207 29z
m453 4 c6 -4 55 -58 109 -121 80 -91 102 -110 110 -99 6 8 53 62 105 121 l93
107 139 0 139 0 0 -456 0 -455 -132 3 -133 3 -5 252 -5 253 -105 -120 c-57
-66 -107 -120 -111 -120 -3 0 -50 51 -104 113 -54 61 -101 113 -106 115 -5 2
-10 -108 -11 -245 l-3 -248 -130 0 -130 0 -3 453 -2 452 137 0 c76 0 143 -4
148 -8z m1463 -94 c22 -57 104 -259 181 -450 78 -191 141 -349 141 -351 0 -1
-65 -4 -143 -6 l-144 -2 -29 75 -29 76 -190 0 -190 0 -24 -62 c-13 -35 -28
-68 -32 -74 -12 -15 -285 -13 -282 1 2 13 342 855 354 878 9 15 28 17 178 17
l168 0 41 -102z m808 -115 l189 -216 3 216 2 217 135 0 135 0 0 -449 c0 -400
-2 -450 -16 -455 -20 -8 -153 -8 -192 0 -24 5 -72 54 -234 239 -111 129 -206
234 -210 234 -4 1 -9 -106 -10 -236 l-3 -238 -130 0 -130 0 -3 453 -2 452 138
0 139 0 189 -217z m3482 205 c6 -7 80 -186 165 -398 86 -212 165 -407 176
-433 12 -27 21 -52 21 -57 0 -13 -279 -10 -288 3 -4 7 -18 41 -32 77 -14 36
-29 64 -33 63 -4 -2 -89 -3 -189 -3 l-183 0 -28 -75 -28 -74 -135 1 c-74 0
-137 5 -140 10 -4 7 332 855 353 891 8 13 329 8 341 -5z m934 -310 l3 -323
250 -3 c183 -2 251 -6 257 -15 4 -6 7 -63 6 -125 -1 -106 -2 -113 -22 -117
-12 -3 -187 -4 -391 -3 l-370 3 -3 453 -2 452 135 0 135 0 2 -322z m1226 310
c6 -7 80 -186 165 -398 86 -212 165 -407 176 -433 12 -27 21 -52 21 -57 0 -13
-279 -10 -288 3 -4 7 -18 40 -32 76 l-25 64 -184 -2 c-102 -1 -188 -4 -191 -6
-4 -2 -19 -36 -34 -75 l-28 -71 -135 2 c-94 1 -136 5 -139 13 -3 7 13 55 35
107 21 52 100 247 176 434 75 187 139 343 142 348 8 13 329 8 341 -5z m-8338
-355 c1 -5 16 -125 34 -268 18 -143 32 -262 29 -264 -6 -8 -290 -14 -317 -7
-23 6 -26 12 -26 49 -1 23 12 144 27 270 l27 227 113 0 c62 0 113 -3 113 -7z
m2740 -962 c194 -15 284 -66 328 -184 28 -73 45 -249 37 -365 -17 -229 -74
-322 -227 -368 -91 -27 -434 -28 -522 -1 -112 35 -167 86 -203 192 -15 42 -18
85 -18 265 0 200 2 219 23 272 47 117 137 172 306 187 128 12 147 12 276 2z
m1214 -45 c63 -24 128 -88 144 -142 26 -88 10 -207 -35 -256 -15 -17 -15 -20
4 -41 42 -46 57 -89 57 -167 0 -90 -22 -140 -86 -194 -76 -65 -100 -69 -500
-74 l-358 -4 0 452 0 451 363 -3 c324 -3 367 -6 411 -22z m978 3 c82 -27 122
-60 155 -127 25 -51 28 -68 28 -157 0 -84 -4 -107 -22 -142 -24 -44 -90 -113
-110 -113 -6 0 -15 -5 -18 -10 -7 -11 141 -280 153 -280 4 0 85 190 179 423
l171 422 174 3 174 2 63 -157 c35 -87 113 -279 173 -428 61 -148 114 -280 119
-293 l9 -23 -147 3 -147 3 -27 70 -26 70 -190 3 -190 2 -29 -75 -29 -75 -282
0 -281 0 -82 150 -82 151 -106 -3 -107 -3 -3 -147 -3 -148 -134 0 -135 0 0
450 0 450 345 0 c322 0 350 -1 407 -21z m1578 9 c1 -49 -66 -525 -74 -530 -16
-11 -204 -10 -211 1 -3 6 -19 119 -35 253 -17 134 -32 253 -35 266 l-5 22 180
0 c137 0 180 -3 180 -12z m-107 -609 c55 -15 77 -56 77 -142 0 -65 -2 -71 -33
-102 -75 -75 -231 -50 -256 42 -43 153 55 246 212 202z m-3445 -1423 c-2 -1
-12 -8 -22 -16 -18 -14 -19 -14 -7 8 7 12 17 20 22 16 6 -3 9 -7 7 -8z m1982
-1 c0 -8 -4 -15 -10 -15 -5 0 -10 7 -10 15 0 8 5 15 10 15 6 0 10 -7 10 -15z
m255 6 c3 -5 1 -12 -5 -16 -5 -3 -10 1 -10 9 0 18 6 21 15 7z m241 -18 c-10
-10 -19 5 -10 18 6 11 8 11 12 0 2 -7 1 -15 -2 -18z m1120 0 c-10 -10 -19 5
-10 18 6 11 8 11 12 0 2 -7 1 -15 -2 -18z m-5816 -3 c13 -13 20 -33 20 -60 0
-53 -27 -80 -80 -80 l-40 0 0 80 0 80 40 0 c27 0 47 -7 60 -20z m2500 -62 c0
-61 -3 -79 -11 -71 -9 9 -16 9 -30 0 -26 -16 -52 12 -52 54 0 36 24 59 61 59
13 0 20 4 17 10 -6 10 1 30 11 30 2 0 4 -37 4 -82z m160 12 c0 -40 4 -70 10
-70 6 0 10 -4 10 -10 0 -18 -28 -11 -35 9 -8 28 -3 141 6 141 5 0 9 -31 9 -70z
m639 -12 c0 -46 -3 -77 -6 -71 -3 9 -10 10 -24 3 -31 -17 -59 4 -59 45 0 40
22 65 56 65 17 0 24 5 24 20 0 11 2 20 5 20 3 0 5 -37 4 -82z m307 -4 c2 -58
0 -74 -8 -66 -8 8 -15 8 -24 1 -21 -17 -52 -1 -59 31 -9 39 10 69 46 77 21 4
29 11 29 26 0 11 3 17 6 14 4 -3 8 -41 10 -83z m232 -61 c16 -13 15 -14 -3
-11 -18 3 -20 11 -21 83 -1 77 0 78 3 11 3 -50 9 -73 21 -83z m301 65 c0 -46
-3 -78 -6 -71 -3 10 -9 10 -24 0 -27 -17 -53 2 -57 42 -4 39 21 71 55 71 16 0
23 6 23 20 0 11 2 20 5 20 3 0 5 -37 4 -82z m506 -58 c8 0 15 -5 15 -11 0 -6
-8 -9 -17 -7 -15 3 -18 15 -19 83 l0 80 3 -72 c3 -56 7 -73 18 -73z m494 53
c1 -60 -1 -75 -11 -65 -8 8 -15 8 -24 1 -20 -16 -53 -1 -60 27 -10 38 11 73
46 80 21 5 30 12 30 26 0 10 4 17 9 14 5 -3 9 -40 10 -83z m1801 5 c0 -50 -4
-78 -9 -70 -7 12 -12 12 -30 0 -20 -12 -24 -10 -42 11 -10 13 -19 32 -19 42 0
27 36 59 66 59 14 0 23 4 19 10 -6 10 1 30 11 30 2 0 4 -37 4 -82z m-5142 42
c14 0 14 -2 -2 -13 -23 -17 -19 -94 4 -89 11 3 12 1 3 -8 -19 -20 -33 -1 -33
44 0 23 -5 47 -12 54 -9 9 -9 12 0 12 7 0 13 8 13 18 1 16 2 16 6 0 2 -10 12
-18 21 -18z m4100 -1 c15 -1 14 -2 -1 -6 -15 -4 -17 -13 -15 -51 2 -36 7 -46
18 -44 11 3 12 1 3 -8 -19 -20 -33 -1 -33 44 0 23 -5 47 -12 54 -9 9 -9 12 0
12 7 0 13 8 13 18 1 16 2 16 6 0 2 -10 12 -19 21 -19z m278 1 c8 0 14 -4 14
-10 0 -5 -6 -9 -12 -7 -9 1 -14 -13 -16 -40 -2 -34 0 -43 12 -43 9 0 16 -5 16
-11 0 -6 -8 -9 -17 -7 -14 2 -19 15 -21 53 -2 27 -9 53 -15 57 -9 6 -9 8 1 8
6 0 13 8 13 18 1 16 2 16 6 0 2 -10 11 -18 19 -18z m517 0 c8 0 7 -4 -1 -12
-7 -7 -12 -32 -12 -56 0 -38 2 -43 18 -37 13 5 14 3 5 -6 -24 -24 -43 -2 -43
51 0 27 -4 50 -10 50 -5 0 -2 9 8 20 14 17 18 18 20 5 2 -8 9 -15 15 -15z
m-6573 -15 c18 -22 5 -45 -30 -51 -16 -4 -30 -10 -30 -15 0 -12 33 -27 49 -21
8 3 11 0 7 -7 -10 -16 -42 -14 -60 5 -22 21 -20 60 4 84 24 24 43 25 60 5z
m79 7 c19 11 24 11 35 -4 12 -16 14 -16 29 0 30 29 52 4 53 -59 l1 -54 -6 50
c-5 45 -8 50 -31 50 -23 0 -26 -5 -31 -50 -7 -57 -8 -57 -15 5 -3 25 -10 49
-15 55 -15 15 -39 -17 -48 -66 l-9 -44 -1 65 c0 39 3 60 8 52 7 -12 12 -12 30
0z m221 -2 c39 -21 33 -91 -11 -105 -46 -15 -80 63 -43 99 18 19 28 20 54 6z
m116 -1 c4 -7 0 -9 -14 -5 -28 9 -40 -14 -16 -30 36 -25 43 -34 38 -49 -8 -20
-40 -28 -61 -15 -15 9 -13 10 12 8 42 -4 46 26 6 40 -32 11 -39 30 -19 50 15
15 45 16 54 1z m134 -84 c23 0 25 4 28 48 5 69 22 57 22 -15 0 -39 -4 -58 -9
-50 -7 11 -12 12 -29 1 -34 -21 -52 3 -50 65 l1 51 6 -50 c5 -45 8 -50 31 -50z
m168 83 c13 -13 17 -108 4 -108 -4 0 -9 21 -9 46 -1 26 -7 50 -15 55 -21 13
-47 -20 -51 -65 -3 -34 -4 -31 -5 17 -1 32 2 56 6 53 4 -2 14 -1 22 5 20 12
34 11 48 -3z m140 3 c18 11 24 10 41 -5 12 -11 21 -30 21 -43 0 -28 -33 -63
-60 -63 -15 0 -20 -7 -20 -25 0 -14 -4 -25 -10 -25 -6 0 -10 36 -10 88 0 52 4
82 9 74 7 -11 12 -12 29 -1z m169 1 c7 -4 12 -30 11 -61 0 -36 -3 -50 -10 -43
-7 7 -16 7 -29 -1 -23 -14 -59 15 -59 50 0 43 53 77 87 55z m103 -2 c0 -5 -6
-7 -13 -4 -8 3 -20 -2 -27 -11 -11 -13 -8 -17 19 -26 41 -14 44 -55 5 -65 -15
-4 -30 -2 -37 6 -9 9 -6 11 17 8 40 -4 44 17 7 37 -33 16 -39 33 -19 53 14 14
48 16 48 2z m108 1 c22 -14 9 -45 -23 -55 -40 -13 -40 -13 -25 -31 8 -9 20
-13 33 -9 13 4 17 2 13 -5 -12 -18 -44 -12 -60 11 -21 30 -20 54 4 78 22 22
37 25 58 11z m116 -7 c33 -33 10 -104 -33 -104 -27 0 -41 21 -41 60 0 56 39
79 74 44z m174 10 c19 -6 22 -13 22 -61 0 -47 -2 -54 -14 -44 -10 8 -16 9 -21
1 -17 -28 -65 5 -65 46 0 13 9 33 20 44 22 22 25 23 58 14z m232 -14 c-8 -5
-17 -7 -19 -4 -3 3 1 9 9 14 8 5 17 7 19 4 3 -3 -1 -9 -9 -14z m104 14 c12 -5
16 -20 16 -63 0 -36 -3 -51 -9 -42 -5 7 -7 30 -4 51 4 31 2 38 -15 42 -23 6
-52 -19 -52 -45 0 -23 28 -47 48 -40 14 5 15 3 5 -7 -10 -11 -18 -11 -38 -2
-19 9 -25 19 -25 43 0 51 33 79 74 63z m105 -59 c6 17 16 39 21 50 9 16 9 15
5 -9 -9 -43 -32 -96 -43 -96 -8 0 -43 97 -41 116 0 5 11 -13 23 -41 l23 -50
12 30z m131 50 c18 -22 5 -45 -30 -51 -32 -7 -40 -28 -15 -38 8 -3 22 -2 32 1
11 4 14 3 9 -5 -19 -30 -76 4 -76 45 0 25 32 63 54 63 7 0 19 -7 26 -15z m95
5 c4 -6 -3 -9 -17 -7 -32 3 -36 -29 -5 -37 31 -7 41 -31 21 -51 -17 -17 -50
-20 -59 -5 -4 6 7 10 24 10 41 0 41 25 1 39 -31 10 -38 29 -18 49 15 15 45 16
53 2z m295 -5 c18 -22 5 -45 -30 -51 -32 -7 -40 -28 -15 -38 8 -3 22 -2 32 1
11 4 14 3 9 -5 -19 -30 -76 4 -76 45 0 25 32 63 54 63 7 0 19 -7 26 -15z m227
4 c8 -8 16 -7 31 2 34 21 52 -3 50 -65 l-1 -51 -6 50 c-5 42 -10 51 -28 53
-23 3 -28 -6 -36 -73 -3 -26 -4 -25 -6 8 -2 56 -17 80 -41 67 -15 -8 -20 -21
-20 -56 0 -28 -4 -43 -10 -39 -5 3 -10 28 -10 55 0 38 3 48 14 44 8 -3 17 -1
21 5 8 14 28 14 42 0z m157 -87 c27 -5 40 13 38 52 -1 19 2 37 8 41 6 4 10
-16 10 -57 0 -38 -4 -58 -9 -50 -7 11 -12 12 -29 1 -34 -21 -52 3 -50 65 l1
51 6 -50 c5 -38 10 -51 25 -53z m131 90 c37 17 55 -4 55 -64 0 -30 -4 -47 -10
-43 -5 3 -10 26 -10 50 0 78 -47 64 -61 -18 -6 -37 -7 -35 -7 23 0 36 2 60 4
53 4 -9 11 -9 29 -1z m289 -8 c33 -33 10 -104 -33 -104 -26 0 -44 26 -43 61 1
54 42 77 76 43z m305 2 c18 -21 2 -45 -35 -52 -28 -5 -32 -9 -24 -24 6 -12 18
-16 37 -13 22 4 25 2 13 -6 -23 -16 -48 -13 -60 8 -17 32 -12 69 12 85 28 20
42 20 57 2z m225 8 c12 -5 16 -20 15 -63 0 -31 -3 -51 -5 -44 -4 9 -11 9 -31
0 -22 -10 -28 -8 -44 12 -24 30 -24 52 1 79 21 23 37 26 64 16z m256 -54 c0
-33 -4 -60 -10 -60 -6 0 -10 27 -10 60 0 33 4 60 10 60 6 0 10 -27 10 -60z
m95 50 c4 -6 -3 -9 -16 -7 -32 3 -35 -21 -5 -33 32 -12 43 -35 26 -55 -14 -17
-46 -20 -55 -4 -4 6 -1 10 6 8 45 -6 54 21 14 39 -23 11 -33 40 -18 55 10 10
41 8 48 -3z m105 0 c0 -5 -6 -7 -14 -4 -19 7 -46 -23 -46 -51 0 -28 29 -48 57
-39 17 5 17 5 -1 -6 -14 -10 -23 -9 -42 1 -44 23 -22 109 28 109 10 0 18 -4
18 -10z m47 -82 c-2 -18 -4 -4 -4 32 0 36 2 50 4 33 2 -18 2 -48 0 -65z m127
76 c36 -35 6 -104 -46 -104 -11 0 -18 -10 -20 -27 -2 -16 -6 9 -9 55 -3 62 -1
81 8 78 7 -3 15 -1 18 4 9 15 32 12 49 -6z m125 -44 c-1 -33 -6 -60 -11 -60
-4 0 -8 27 -8 60 0 35 4 60 11 60 6 0 9 -23 8 -60z m78 53 c21 9 27 8 39 -8
17 -23 19 -105 3 -105 -8 0 -10 14 -6 39 3 23 0 47 -7 56 -20 27 -54 -6 -59
-58 -2 -29 -4 -22 -4 23 -1 36 1 60 3 53 4 -9 11 -9 31 0z m157 1 c12 -5 16
-20 15 -63 0 -31 -3 -51 -6 -44 -3 10 -9 10 -24 0 -28 -18 -53 2 -57 45 -4 52
27 79 72 62z m317 -10 c11 -14 10 -19 -10 -35 -13 -11 -32 -19 -42 -19 -10 0
-19 -4 -19 -9 0 -17 26 -30 51 -25 22 5 22 4 5 -6 -30 -20 -66 2 -66 41 0 57
51 89 81 53z m167 4 c7 -7 12 -34 12 -61 0 -41 -2 -48 -14 -38 -10 8 -16 9
-21 1 -17 -28 -65 5 -65 46 0 46 59 81 88 52z m62 -68 c-7 -43 -8 -43 -8 20
-1 42 2 58 7 45 5 -11 5 -40 1 -65z m30 60 c-8 -5 -17 -7 -19 -4 -3 3 1 9 9
14 8 5 17 7 19 4 3 -3 -1 -9 -9 -14z m104 14 c13 -5 16 -22 15 -88 -1 -60 -3
-71 -8 -41 -4 26 -9 35 -14 28 -20 -31 -67 1 -67 44 0 45 35 72 74 57z m76
-43 c0 -82 54 -70 63 14 2 27 4 18 5 -25 0 -36 -2 -60 -4 -53 -4 9 -11 9 -31
0 -21 -9 -27 -8 -39 8 -16 22 -19 105 -4 105 6 0 10 -22 10 -49z m130 -11 c0
-33 -4 -60 -10 -60 -6 0 -10 27 -10 60 0 33 4 60 10 60 6 0 10 -27 10 -60z
m190 45 c10 -13 10 -19 -5 -35 -10 -11 -29 -20 -42 -20 -12 0 -23 -4 -23 -10
0 -14 31 -28 54 -23 20 4 20 4 2 -7 -31 -21 -66 2 -66 44 0 56 50 87 80 51z
m100 7 c0 -4 -10 -8 -22 -9 -25 -2 -38 -19 -38 -50 0 -26 24 -42 54 -36 20 4
20 4 2 -7 -13 -9 -24 -9 -42 -1 -46 21 -24 111 27 111 10 0 19 -4 19 -8z m136
-92 c22 -19 44 6 44 51 0 21 5 41 10 44 6 4 10 -17 10 -57 0 -38 -4 -58 -9
-50 -7 11 -12 12 -29 1 -34 -21 -52 3 -50 65 l2 51 3 -47 c2 -25 11 -52 19
-58z m114 20 c-7 -43 -8 -43 -8 20 -1 42 2 58 7 45 5 -11 5 -40 1 -65z m30 60
c-8 -5 -17 -7 -19 -4 -3 3 1 9 9 14 8 5 17 7 19 4 3 -3 -1 -9 -9 -14z m104 14
c12 -5 16 -20 15 -63 0 -31 -3 -51 -6 -44 -3 10 -9 10 -24 0 -27 -17 -53 2
-57 42 -5 51 29 81 72 65z m308 -11 c36 -32 14 -103 -32 -103 -21 0 -50 35
-50 60 0 23 29 60 47 60 9 0 25 -7 35 -17z m252 1 c33 -32 8 -104 -35 -104
-20 0 -49 36 -49 60 0 25 29 60 50 60 10 0 26 -7 34 -16z m-5204 -64 l-7 -45
-1 60 c-1 37 2 54 7 45 5 -8 5 -35 1 -60z m4701 -57 c-10 -17 -10 -16 -11 3 0
23 13 41 18 25 2 -6 -1 -18 -7 -28z m-2706 -92 c3 -5 1 -12 -5 -16 -5 -3 -10
1 -10 9 0 18 6 21 15 7z m540 0 c3 -5 1 -12 -5 -16 -5 -3 -10 1 -10 9 0 18 6
21 15 7z m-2445 -83 c0 -51 -4 -78 -9 -69 -5 7 -7 30 -4 51 4 27 1 39 -10 43
-20 8 -57 -20 -57 -43 0 -26 27 -50 47 -43 11 4 14 3 9 -5 -9 -15 -39 -15 -54
0 -17 17 -15 68 5 90 9 10 27 18 40 18 16 0 23 6 23 20 0 11 2 20 5 20 3 0 5
-37 5 -82z m339 -5 c0 -56 -3 -73 -11 -65 -8 8 -15 8 -24 1 -20 -16 -53 -1
-60 27 -10 38 11 73 46 80 21 5 30 12 30 26 0 10 4 17 9 13 6 -3 10 -40 10
-82z m1240 1 c-1 -54 -4 -73 -12 -65 -7 7 -14 7 -23 0 -20 -16 -53 -1 -60 27
-10 38 11 73 46 80 21 5 30 12 30 26 0 10 5 16 10 13 6 -3 10 -40 9 -81z m808
6 c1 -63 -2 -79 -11 -71 -9 7 -16 7 -23 0 -17 -17 -52 0 -59 27 -10 37 11 73
45 80 17 4 31 14 34 25 10 36 14 19 14 -61z m153 70 c0 -5 -9 -10 -20 -10 -11
0 -20 -4 -20 -10 0 -5 7 -10 15 -10 8 0 15 -4 15 -10 0 -5 -7 -10 -15 -10 -12
0 -15 -14 -15 -67 0 -93 -8 -75 -11 26 -2 63 1 85 12 92 19 12 39 11 39 -1z
m-1284 -15 c-3 -9 0 -15 9 -15 8 0 15 -5 15 -11 0 -5 -4 -8 -9 -5 -9 6 -19
-47 -13 -76 2 -11 9 -15 20 -11 13 5 14 3 5 -7 -22 -24 -43 -4 -43 44 0 25 -4
47 -10 51 -5 3 -2 14 8 25 20 24 26 25 18 5z m822 -15 c14 0 14 -2 -2 -13 -23
-17 -19 -94 4 -89 11 3 12 1 3 -8 -19 -20 -33 -1 -33 44 0 23 -5 47 -12 54 -9
9 -9 12 0 12 7 0 13 8 13 18 1 16 2 16 6 0 2 -10 12 -18 21 -18z m933 0 c5 0
9 -5 9 -11 0 -5 -5 -7 -11 -4 -7 5 -9 -9 -7 -42 2 -33 7 -47 16 -45 8 1 11 -2
7 -8 -10 -16 -33 -12 -39 8 -9 31 -10 108 -1 123 8 12 10 11 13 -3 2 -10 8
-18 13 -18z m-2896 -30 c0 -20 -7 -27 -33 -35 -40 -12 -36 -28 9 -36 l34 -5
-28 -8 c-38 -11 -66 14 -63 56 4 55 81 82 81 28z m95 20 c0 -5 -11 -10 -25
-10 -32 0 -32 -18 0 -30 55 -21 35 -81 -22 -64 l-28 8 30 4 c45 5 51 18 16 36
-32 17 -42 50 -18 59 21 9 47 7 47 -3z m239 -4 c16 -20 3 -45 -28 -52 -14 -3
-30 -7 -35 -8 -20 -5 25 -34 46 -29 21 4 21 3 4 -7 -30 -20 -66 2 -66 41 0 55
50 90 79 55z m106 -63 c3 -14 13 -23 25 -23 24 0 32 14 41 65 6 34 7 31 7 -25
0 -36 -2 -60 -4 -53 -4 9 -11 9 -29 1 -38 -17 -55 4 -54 66 1 30 4 39 6 21 2
-16 6 -40 8 -52z m153 68 c34 21 52 -3 50 -65 l-1 -51 -6 50 c-5 38 -10 51
-25 53 -25 5 -35 -7 -45 -59 -9 -44 -9 -44 -10 21 0 39 3 60 8 52 7 -11 12
-12 29 -1z m226 -7 c33 -33 6 -104 -39 -104 -18 0 -25 -6 -27 -27 -2 -16 -6 9
-9 55 -3 62 -1 81 8 78 7 -3 15 -1 18 4 9 15 32 12 49 -6z m84 -82 c24 -4 32
9 36 57 4 58 16 44 16 -20 0 -39 -4 -59 -9 -51 -7 11 -12 12 -29 1 -34 -21
-52 3 -50 65 l1 51 6 -50 c5 -42 10 -51 29 -53z m130 89 c33 21 52 -3 51 -65
l-2 -51 -6 47 c-4 27 -11 52 -17 58 -18 18 -44 -12 -53 -60 l-9 -45 -1 65 c0
39 3 60 8 52 7 -11 12 -12 29 -1z m236 -7 c33 -33 10 -104 -33 -104 -38 0 -61
59 -37 95 19 29 47 32 70 9z m304 3 c17 -20 -13 -57 -44 -57 -38 0 -24 -24 17
-30 30 -5 32 -7 12 -13 -34 -12 -63 8 -63 45 0 53 51 88 78 55z m112 -51 c13
-34 22 -27 40 29 7 22 15 35 17 29 5 -16 -30 -107 -43 -111 -10 -3 -30 50 -41
107 -4 18 13 -14 27 -54z m97 -28 c-2 -18 -4 -4 -4 32 0 36 2 50 4 33 2 -18 2
-48 0 -65z m103 82 c0 -5 -9 -10 -20 -10 -29 0 -25 -27 5 -34 36 -9 35 -53 -1
-62 -15 -4 -30 -2 -37 6 -9 10 -8 11 8 6 11 -3 26 -1 34 3 12 8 12 12 2 25 -8
9 -20 16 -28 16 -19 0 -28 27 -13 45 14 17 50 20 50 5z m186 2 c15 -9 23 -102
9 -100 -5 0 -18 -3 -29 -7 -28 -12 -51 7 -54 48 -2 27 2 39 20 51 25 18 37 19
54 8z m251 -84 c-2 -18 -4 -4 -4 32 0 36 2 50 4 33 2 -18 2 -48 0 -65z m181
83 c22 -14 9 -45 -23 -55 -40 -13 -40 -13 -26 -29 6 -8 23 -12 39 -10 21 4 24
2 12 -6 -37 -26 -73 -1 -73 51 0 44 38 70 71 49z m81 -2 c27 15 28 0 1 -17
-14 -8 -20 -23 -20 -46 0 -19 -4 -38 -10 -41 -6 -4 -10 17 -10 57 0 39 4 58 9
49 7 -10 13 -11 30 -2z m109 2 c24 -15 9 -45 -26 -56 -38 -11 -37 -29 1 -33
15 -2 25 -8 22 -13 -9 -14 -37 -11 -57 8 -47 42 8 128 60 94z m80 0 c34 21 52
-3 50 -65 l-1 -51 -6 50 c-5 38 -10 51 -25 53 -25 5 -35 -7 -45 -59 -9 -44 -9
-44 -10 21 0 39 3 60 8 52 7 -11 12 -12 29 -1z m237 -21 c0 -20 -7 -27 -33
-35 -40 -12 -36 -28 9 -36 l34 -5 -28 -8 c-56 -16 -89 52 -46 95 28 28 64 22
64 -11z m45 -76 c0 -8 -5 -12 -10 -9 -6 4 -8 11 -5 16 9 14 15 11 15 -7z
m-1503 -2061 c219 -146 253 -171 253 -193 0 -22 -37 -54 -248 -213 -136 -103
-256 -187 -267 -187 -10 0 -27 7 -37 17 -17 15 -18 40 -18 364 l0 348 22 15
c12 9 27 16 33 16 5 0 123 -75 262 -167z m9064 -220 c47 -28 59 -67 59 -198 0
-129 -12 -170 -58 -202 -26 -17 -72 -18 -832 -18 -760 0 -806 1 -832 18 -46
32 -58 73 -58 202 0 130 13 175 59 200 22 12 154 14 829 15 740 0 806 -1 833
-17z"/>
<path d="M10772 8048 c-19 -19 -14 -30 11 -26 12 2 22 9 22 17 0 19 -18 24
-33 9z"/>
<path d="M9030 8061 c0 -5 -3 -16 -6 -25 -4 -12 0 -16 16 -16 16 0 20 4 16 16
-3 9 -6 20 -6 25 0 5 -4 9 -10 9 -5 0 -10 -4 -10 -9z"/>
<path d="M7634 8052 c-20 -13 -25 -48 -9 -62 21 -18 47 5 43 38 -3 27 -16 36
-34 24z"/>
<path d="M7794 8043 c-17 -17 -17 -18 0 -21 20 -4 48 16 40 29 -8 14 -21 11
-40 -8z"/>
<path d="M8012 8048 c-18 -18 -15 -55 5 -62 21 -9 45 20 41 49 -4 23 -28 31
-46 13z"/>
<path d="M9553 8053 c-18 -7 -16 -48 2 -63 30 -25 61 30 33 58 -13 13 -16 13
-35 5z"/>
<path d="M10652 8048 c-18 -18 -15 -55 5 -62 21 -9 45 20 41 49 -4 23 -28 31
-46 13z"/>
<path d="M11032 8048 c-18 -18 -15 -55 5 -62 21 -9 45 20 41 49 -4 23 -28 31
-46 13z"/>
<path d="M11190 8040 c-14 -26 4 -63 28 -58 21 4 29 57 10 69 -20 13 -26 11
-38 -11z"/>
<path d="M1026 7909 c-9 -29 -16 -54 -16 -56 0 -2 16 -3 35 -3 40 0 39 -2 23
54 -17 62 -25 63 -42 5z"/>
<path d="M1390 7918 c0 -25 3 -28 34 -28 19 0 41 3 50 6 19 7 22 44 4 45 -86
6 -88 6 -88 -23z"/>
<path d="M8901 6499 c-91 -12 -111 -48 -110 -201 0 -116 12 -163 49 -190 21
-15 45 -18 162 -19 210 0 223 14 217 229 -4 117 -5 123 -32 149 -25 26 -34 28
-131 33 -56 3 -126 2 -155 -1z"/>
<path d="M6941 6449 c-51 -132 -71 -184 -71 -189 0 -6 160 -4 166 3 4 4 -69
193 -79 203 -4 4 -11 -4 -16 -17z"/>
<path d="M11248 6382 c-21 -53 -38 -103 -40 -111 -2 -11 15 -14 79 -15 46 0
83 2 83 6 0 7 -79 210 -84 215 -1 1 -18 -42 -38 -95z"/>
<path d="M13408 6382 c-21 -53 -38 -103 -40 -111 -2 -11 15 -14 79 -15 46 0
83 2 83 6 0 7 -79 210 -84 215 -1 1 -18 -42 -38 -95z"/>
<path d="M7833 5160 c-139 -8 -159 -37 -151 -226 7 -174 19 -186 188 -192 220
-7 243 14 238 225 -3 128 -4 133 -29 159 -32 32 -105 42 -246 34z"/>
<path d="M8734 5141 c-2 -2 -4 -19 -4 -38 l0 -33 193 2 192 3 3 28 c2 16 -2
29 -10 32 -17 5 -368 11 -374 6z"/>
<path d="M8732 4803 l3 -38 179 -3 c148 -2 183 0 202 13 28 18 30 28 8 49 -13
13 -46 16 -205 16 l-190 0 3 -37z"/>
<path d="M9734 5141 c-2 -2 -4 -22 -4 -43 l0 -38 191 2 c170 3 193 5 203 21 8
12 8 22 0 35 -10 15 -34 18 -198 22 -103 3 -190 3 -192 1z"/>
<path d="M10916 5122 c-9 -16 -76 -193 -76 -203 0 -5 39 -9 86 -9 65 0 85 3
81 13 -3 6 -22 55 -42 107 -41 106 -41 105 -49 92z"/>
<path d="M5940 3281 c0 -67 1 -71 23 -71 40 0 62 24 62 69 0 47 -8 56 -52 66
l-33 7 0 -71z"/>
<path d="M8458 3299 c-21 -12 -24 -62 -5 -78 20 -16 44 7 49 46 3 22 0 34 -10
38 -16 6 -13 7 -34 -6z"/>
<path d="M9255 3293 c-21 -20 -19 -60 4 -72 25 -14 54 17 49 55 -3 31 -30 40
-53 17z"/>
<path d="M9567 3297 c-23 -19 -27 -43 -11 -66 22 -31 54 -12 54 33 0 37 -19
52 -43 33z"/>
<path d="M10095 3293 c-20 -19 -19 -57 1 -74 14 -11 19 -10 35 10 25 31 25 67
-1 74 -11 3 -27 -1 -35 -10z"/>
<path d="M11091 3291 c-25 -25 -26 -30 -5 -59 12 -18 19 -20 35 -11 16 8 19
19 17 46 -4 44 -19 52 -47 24z"/>
<path d="M12903 3299 c-27 -10 -32 -59 -9 -78 22 -18 55 18 49 53 -7 32 -12
36 -40 25z"/>
<path d="M6097 3298 c-9 -5 -17 -15 -17 -23 0 -16 51 -6 57 12 5 15 -20 23
-40 11z"/>
<path d="M6396 3294 c-31 -30 -14 -78 25 -72 19 2 25 10 27 35 4 40 -27 62
-52 37z"/>
<path d="M6995 3297 c-19 -15 -24 -62 -7 -79 18 -18 52 9 52 41 0 38 -21 55
-45 38z"/>
<path d="M7123 3299 c-25 -9 -32 -56 -11 -77 20 -20 48 4 48 43 0 40 -7 46
-37 34z"/>
<path d="M7327 3293 c-15 -14 -6 -32 13 -28 26 5 40 14 40 26 0 10 -43 12 -53
2z"/>
<path d="M7448 3299 c-25 -14 -24 -65 1 -79 39 -20 68 41 35 74 -8 9 -16 16
-17 16 -1 0 -10 -5 -19 -11z"/>
<path d="M7628 3299 c-26 -15 -24 -75 2 -82 26 -7 42 15 38 54 -3 36 -14 43
-40 28z"/>
<path d="M8197 3299 c-9 -6 -17 -14 -17 -18 0 -16 28 -20 45 -7 14 10 14 14 3
23 -9 8 -19 8 -31 2z"/>
<path d="M8587 3299 c-25 -14 -21 -29 7 -29 30 0 41 14 23 28 -8 7 -18 7 -30
1z"/>
<path d="M9387 3298 c-21 -11 -23 -61 -3 -77 29 -24 65 16 51 58 -7 24 -26 32
-48 19z"/>
<path d="M9686 3291 c-13 -14 -14 -20 -4 -23 22 -8 49 4 46 20 -5 23 -22 25
-42 3z"/>
<path d="M9916 3297 c-12 -9 -17 -23 -14 -42 2 -24 8 -30 28 -30 22 0 25 4 25
39 0 43 -11 53 -39 33z"/>
<path d="M10545 3294 c-8 -9 -15 -29 -15 -45 0 -24 4 -29 24 -29 31 0 50 24
42 54 -7 30 -31 40 -51 20z"/>
<path d="M10905 3293 c-20 -19 -19 -48 1 -68 15 -15 18 -15 35 1 26 23 25 70
-1 77 -11 3 -27 -1 -35 -10z"/>
<path d="M11228 3303 c-21 -5 -31 -30 -13 -36 18 -8 53 19 40 31 -5 5 -17 7
-27 5z"/>
<path d="M11388 3299 c-26 -15 -24 -75 2 -82 26 -7 42 15 38 54 -3 36 -14 43
-40 28z"/>
<path d="M11590 3290 c-21 -21 -23 -29 -14 -54 14 -37 64 -10 64 35 0 35 -25
44 -50 19z"/>
<path d="M11983 3299 c-13 -4 -23 -13 -23 -18 0 -16 28 -20 47 -6 24 18 6 36
-24 24z"/>
<path d="M12466 3298 c-22 -13 -21 -65 3 -77 24 -13 51 14 51 51 0 29 -26 41
-54 26z"/>
<path d="M12772 3298 c-15 -15 -16 -60 -1 -75 12 -12 39 -6 51 11 12 18 9 44
-8 60 -19 19 -26 20 -42 4z"/>
<path d="M13022 3298 c-19 -19 -15 -66 7 -78 39 -20 68 41 35 74 -19 19 -26
20 -42 4z"/>
<path d="M8227 3023 c-12 -11 -7 -71 6 -76 25 -9 47 13 47 48 0 30 -3 35 -23
35 -13 0 -27 -3 -30 -7z"/>
<path d="M9477 3027 c-15 -11 -21 -34 -18 -65 1 -8 11 -12 29 -10 23 3 27 8
30 39 3 40 -15 56 -41 36z"/>
<path d="M10277 3023 c-12 -11 -7 -71 6 -76 25 -9 47 13 47 48 0 30 -3 35 -23
35 -13 0 -27 -3 -30 -7z"/>
<path d="M8027 3028 c-9 -5 -17 -14 -17 -19 0 -14 52 -7 57 7 5 16 -20 24 -40
12z"/>
<path d="M8355 3020 c-13 -14 -13 -19 -3 -22 20 -7 48 3 48 17 0 22 -27 25
-45 5z"/>
<path d="M8848 3029 c-23 -13 -25 -74 -3 -83 17 -6 55 27 55 48 0 12 -26 47
-33 46 -1 0 -10 -5 -19 -11z"/>
<path d="M9295 3026 c-11 -8 -16 -22 -13 -41 2 -24 8 -31 30 -33 19 -2 28 2
33 17 14 45 -17 81 -50 57z"/>
<path d="M9587 3016 c-8 -19 -1 -24 28 -18 14 2 25 11 25 18 0 18 -46 18 -53
0z"/>
<path d="M10090 3015 c-15 -18 -6 -61 15 -68 21 -9 45 20 45 54 0 24 -4 29
-24 29 -13 0 -29 -7 -36 -15z"/>
<path d="M10537 3028 c-19 -10 -23 -38 -6 -38 16 0 49 20 49 29 0 14 -25 20
-43 9z"/>
<path d="M10727 3028 c-21 -11 -22 -38 -3 -38 13 0 46 25 46 35 0 9 -28 12
-43 3z"/>
<path d="M11033 3025 c-26 -20 -4 -42 26 -26 12 7 21 16 21 20 0 16 -28 20
-47 6z"/>
<path d="M17160 550 c0 -5 12 -18 27 -27 l27 -18 -29 -5 c-25 -4 -31 -10 -33
-37 -2 -23 5 -40 28 -67 35 -39 50 -39 50 0 0 20 5 24 30 24 37 0 37 6 3 42
l-27 28 27 0 c24 0 27 4 27 35 l0 35 -65 0 c-36 0 -65 -4 -65 -10z"/>
<path d="M17870 465 c0 -37 4 -65 10 -65 6 0 10 28 10 65 0 37 -4 65 -10 65
-6 0 -10 -28 -10 -65z"/>
<path d="M17412 465 c3 -60 19 -76 29 -29 4 16 7 22 8 13 0 -8 7 -24 15 -34
14 -19 15 -19 27 9 13 28 14 28 19 7 9 -41 25 -22 28 34 3 48 1 55 -15 55 -13
0 -24 -13 -33 -37 l-14 -38 -14 38 c-10 25 -21 37 -34 37 -17 0 -19 -6 -16
-55z"/>
<path d="M17700 504 c0 -9 -6 -14 -12 -11 -24 8 -48 -13 -48 -43 0 -33 21 -49
60 -45 23 1 25 6 28 58 2 46 0 57 -13 57 -8 0 -15 -7 -15 -16z m-5 -54 c0 -7
-6 -15 -12 -17 -8 -3 -13 4 -13 17 0 13 5 20 13 18 6 -3 12 -11 12 -18z"/>
<path d="M18040 459 c0 -44 3 -60 13 -57 6 3 13 14 15 26 2 14 11 22 23 22 27
0 24 30 -3 31 -22 1 -22 1 1 8 42 12 37 31 -8 31 l-41 0 0 -61z"/>
<path d="M17570 490 c-7 -4 -10 -15 -7 -24 4 -9 2 -16 -4 -16 -6 0 -9 -10 -7
-22 2 -19 10 -23 41 -25 l38 -1 -3 40 c-3 43 -30 65 -58 48z m30 -54 c0 -3 -4
-8 -10 -11 -5 -3 -10 -1 -10 4 0 6 5 11 10 11 6 0 10 -2 10 -4z"/>
<path d="M17756 487 c-22 -16 -18 -65 7 -81 40 -25 80 52 41 81 -10 7 -21 13
-24 13 -3 0 -14 -6 -24 -13z m41 -53 c-3 -3 -12 -4 -19 -1 -8 3 -5 6 6 6 11 1
17 -2 13 -5z"/>
<path d="M17915 492 c-9 -10 -5 -92 5 -92 6 0 11 7 11 15 1 8 3 20 4 25 1 6 3
15 4 20 3 24 20 7 23 -22 2 -18 8 -33 13 -33 13 0 19 65 7 77 -11 11 -59 18
-67 10z"/>
<path d="M18126 475 c-7 -29 2 -75 15 -75 5 0 9 13 9 30 0 17 7 33 17 39 20
11 12 23 -16 28 -13 2 -21 -5 -25 -22z"/>
<path d="M18200 490 c-7 -4 -10 -15 -7 -23 3 -9 1 -17 -5 -19 -6 -2 -8 -13 -4
-26 6 -17 14 -21 42 -20 33 1 34 3 34 39 0 46 -28 69 -60 49z"/>
<path d="M18273 484 c-2 -7 -3 -27 -1 -45 4 -43 28 -52 28 -10 0 29 19 55 21
29 1 -7 2 -17 4 -23 1 -5 3 -16 3 -22 4 -26 22 -12 22 16 0 29 19 55 21 29 1
-7 2 -17 4 -23 1 -5 3 -16 3 -22 1 -7 7 -13 12 -13 15 0 12 80 -3 86 -30 11
-109 10 -114 -2z"/>
<path d="M18439 486 c-31 -15 -35 -47 -10 -70 25 -23 57 -13 65 19 12 47 -14
72 -55 51z m28 -52 c-3 -3 -12 -4 -19 -1 -8 3 -5 6 6 6 11 1 17 -2 13 -5z"/>
<path d="M18510 449 c0 -27 4 -49 9 -49 11 0 21 25 21 51 0 10 5 19 10 19 22
0 8 25 -15 26 -23 2 -25 -1 -25 -47z"/>
</g>
</svg>
